HIERARCHY
ROOT hip
{
  OFFSET 0 0 0
  CHANNELS 6 Xposition Yposition Zposition Zrotation Yrotation Xrotation
  JOINT abdomen
  {
    OFFSET 0 20.6881 -0.73152
    CHANNELS 3 Zrotation Xrotation Yrotation
    JOINT chest
    {
      OFFSET 0 11.7043 -0.48768
      CHANNELS 3 Zrotation Xrotation Yrotation
      JOINT neck
      {
        OFFSET 0 22.1894 -2.19456
        CHANNELS 3 Zrotation Xrotation Yrotation
        JOINT head
        {
          OFFSET -0.24384 7.07133 1.2192
          CHANNELS 3 Zrotation Xrotation Yrotation
          JOINT leftEye
          {
            OFFSET 4.14528 8.04674 8.04672
            CHANNELS 3 Zrotation Xrotation Yrotation
            End Site
            {
              OFFSET 1 0 0
            }
          }
          JOINT rightEye
          {
            OFFSET -3.6576 8.04674 8.04672
            CHANNELS 3 Zrotation Xrotation Yrotation
            End Site
            {
              OFFSET 1 0 0
            }
          }
        }
      }
      JOINT rCollar
      {
        OFFSET -2.68224 19.2634 -4.8768
        CHANNELS 3 Zrotation Xrotation Yrotation
        JOINT rShldr
        {
          OFFSET -8.77824 -1.95073 1.46304
          CHANNELS 3 Zrotation Xrotation Yrotation
          JOINT rForeArm
          {
            OFFSET -28.1742 -1.7115 0.48768
            CHANNELS 3 Zrotation Xrotation Yrotation
            JOINT rHand
            {
              OFFSET -22.5879 0.773209 7.07136
              CHANNELS 3 Zrotation Xrotation Yrotation
              JOINT rThumb1
              {
                OFFSET -1.2192 -0.487915 3.41376
                CHANNELS 3 Zrotation Xrotation Yrotation
                JOINT rThumb2
                {
                  OFFSET -3.37035 -0.52449 3.41376
                  CHANNELS 3 Zrotation Xrotation Yrotation
                  End Site
                  {
                    OFFSET -1.78271 -1.18214 1.43049
                  }
                }
              }
              JOINT rIndex1
              {
                OFFSET -7.75947 0.938293 5.60832
                CHANNELS 3 Zrotation Xrotation Yrotation
                JOINT rIndex2
                {
                  OFFSET -2.54057 -0.884171 1.56538
                  CHANNELS 3 Zrotation Xrotation Yrotation
                  End Site
                  {
                    OFFSET -1.62519 -0.234802 1.16502
                  }
                }
              }
              JOINT rMid1
              {
                OFFSET -8.24714 1.18213 3.41376
                CHANNELS 3 Zrotation Xrotation Yrotation
                JOINT rMid2
                {
                  OFFSET -3.10165 -0.590103 1.0647
                  CHANNELS 3 Zrotation Xrotation Yrotation
                  End Site
                  {
                    OFFSET -2.48547 -0.328903 0.83742
                  }
                }
              }
              JOINT rRing1
              {
                OFFSET -8.82822 0.546677 1.51678
                CHANNELS 3 Zrotation Xrotation Yrotation
                JOINT rRing2
                {
                  OFFSET -2.60934 -0.819778 -0.0198488
                  CHANNELS 3 Zrotation Xrotation Yrotation
                  End Site
                  {
                    OFFSET -2.33842 -0.294052 0.168128
                  }
                }
              }
              JOINT rPinky1
              {
                OFFSET -8.27202 -0.0477905 -0.4584
                CHANNELS 3 Zrotation Xrotation Yrotation
                JOINT rPinky2
                {
                  OFFSET -1.82734 -0.647385 -0.700984
                  CHANNELS 3 Zrotation Xrotation Yrotation
                  End Site
                  {
                    OFFSET -1.69225 -0.51767 -0.607171
                  }
                }
              }
            }
          }
        }
      }
      JOINT lCollar
      {
        OFFSET 2.68224 19.2634 -4.8768
        CHANNELS 3 Zrotation Xrotation Yrotation
        JOINT lShldr
        {
          OFFSET 8.77824 -1.95073 1.46304
          CHANNELS 3 Zrotation Xrotation Yrotation
          JOINT lForeArm
          {
            OFFSET 28.1742 -1.7115 0.48768
            CHANNELS 3 Zrotation Xrotation Yrotation
            JOINT lHand
            {
              OFFSET 22.5879 0.773209 7.07136
              CHANNELS 3 Zrotation Xrotation Yrotation
              JOINT lThumb1
              {
                OFFSET 1.2192 -0.487915 3.41376
                CHANNELS 3 Zrotation Xrotation Yrotation
                JOINT lThumb2
                {
                  OFFSET 3.37035 -0.52449 3.41376
                  CHANNELS 3 Zrotation Xrotation Yrotation
                  End Site
                  {
                    OFFSET 1.78271 -1.18214 1.43049
                  }
                }
              }
              JOINT lIndex1
              {
                OFFSET 7.75947 0.938293 5.60832
                CHANNELS 3 Zrotation Xrotation Yrotation
                JOINT lIndex2
                {
                  OFFSET 2.54057 -0.884171 1.56538
                  CHANNELS 3 Zrotation Xrotation Yrotation
                  End Site
                  {
                    OFFSET 1.62519 -0.234802 1.16502
                  }
                }
              }
              JOINT lMid1
              {
                OFFSET 8.24714 1.18213 3.41376
                CHANNELS 3 Zrotation Xrotation Yrotation
                JOINT lMid2
                {
                  OFFSET 3.10165 -0.590103 1.0647
                  CHANNELS 3 Zrotation Xrotation Yrotation
                  End Site
                  {
                    OFFSET 2.48547 -0.328903 0.83742
                  }
                }
              }
              JOINT lRing1
              {
                OFFSET 8.82822 0.546677 1.51678
                CHANNELS 3 Zrotation Xrotation Yrotation
                JOINT lRing2
                {
                  OFFSET 2.60934 -0.819778 -0.0198488
                  CHANNELS 3 Zrotation Xrotation Yrotation
                  End Site
                  {
                    OFFSET 2.33842 -0.294052 0.168128
                  }
                }
              }
              JOINT lPinky1
              {
                OFFSET 8.27202 -0.0477905 -0.4584
                CHANNELS 3 Zrotation Xrotation Yrotation
                JOINT lPinky2
                {
                  OFFSET 1.82734 -0.647385 -0.700984
                  CHANNELS 3 Zrotation Xrotation Yrotation
                  End Site
                  {
                    OFFSET 1.69225 -0.51767 -0.607171
                  }
                }
              }
            }
          }
        }
      }
    }
  }
  JOINT rButtock
  {
    OFFSET -8.77824 4.35084 1.2192
    CHANNELS 3 Zrotation Xrotation Yrotation
    JOINT rThigh
    {
      OFFSET 0 -1.70687 -2.19456
      CHANNELS 3 Zrotation Xrotation Yrotation
      JOINT rShin
      {
        OFFSET 0 -36.8199 0.73152
        CHANNELS 3 Zrotation Xrotation Yrotation
        JOINT rFoot
        {
          OFFSET 0.73152 -45.1104 -5.12064
          CHANNELS 3 Zrotation Xrotation Yrotation
          End Site
          {
            OFFSET -1.1221 -3.69964 12.103
          }
        }
      }
    }
  }
  JOINT lButtock
  {
    OFFSET 8.77824 4.35084 1.2192
    CHANNELS 3 Zrotation Xrotation Yrotation
    JOINT lThigh
    {
      OFFSET 0 -1.70687 -2.19456
      CHANNELS 3 Zrotation Xrotation Yrotation
      JOINT lShin
      {
        OFFSET 0 -36.8199 0.73152
        CHANNELS 3 Zrotation Xrotation Yrotation
        JOINT lFoot
        {
          OFFSET -0.73152 -45.1104 -5.12064
          CHANNELS 3 Zrotation Xrotation Yrotation
          End Site
          {
            OFFSET 1.1221 -3.69964 12.103
          }
        }
      }
    }
  }
}
MOTION
Frames:	4
Frame Time:	0.00833333
-39.0061 8.23229 81.8435 143.353 49.4926 -114.579 -11.8442 -7.12746 -5.37459 -0.435482 -7.72063 -1.76015 -5.00472 -5.11514 -6.25907 -3.06724 29.5164 -4.52519 -0.0 0.0 0.0 -0.0 0.0 0.0 -9.78265e-14 9.41725e-13 5.8952e-13 17.0413 0.655758 45.4991 -11.7429 -5.26988 21.1134 -0.593945 21.3531 3.14969 -3.21741e-09 6.90578e-10 -2.49794e-09 -5.59739e-09 1.19142e-09 -4.2595e-09 -3.2174e-09 6.9058e-10 -2.49795e-09 7.73091 5.47488 0.417314 -3.21741e-09 6.90578e-10 -2.49794e-09 2.90554 0.965183 0.102902 -3.21741e-09 6.90579e-10 -2.49794e-09 10.2786 0.731801 0.0259123 -3.21741e-09 6.90581e-10 -2.49793e-09 2.22167 -0.733487 -0.20892 -9.80334e-14 9.41684e-13 5.89197e-13 -19.6891 25.7211 -84.019 12.3422 -5.69148 -22.274 0.702665 -23.1015 3.43696 -3.24074e-09 -2.33096e-09 -4.66063e-09 -5.51107e-09 -4.06602e-09 -8.11525e-09 -3.24075e-09 -2.33096e-09 -4.66061e-09 -7.73091 5.47488 -0.417314 -3.24074e-09 -2.33096e-09 -4.66062e-09 -2.90554 0.965183 -0.102902 -3.24075e-09 -2.33096e-09 -4.66061e-09 -10.2786 0.731801 -0.0259123 -3.24074e-09 -2.33096e-09 -4.66062e-09 -2.22167 -0.733487 0.20892 -2.03217e-16 0.0 -3.88251e-19 13.0934 -41.0173 20.2662 -174.52 72.528 172.817 -8.46424 -56.4899 -11.0069 2.03217e-16 0.0 3.88251e-19 2.35278 -74.9328 14.953 7.01662 79.1171 -3.3271 2.46677 -32.601 6.3403
-39.0985 8.30843 81.7789 143.116 49.79 -114.576 -11.7542 -7.15321 -5.33612 -0.445147 -7.73715 -1.7273 -5.03375 -5.23935 -6.23013 -3.15357 29.4854 -4.46373 -0.0 0.0 0.0 -0.0 0.0 0.0 1.20995e-13 1.09731e-12 5.71158e-13 16.7271 0.285194 45.6059 -11.7653 -5.2853 21.1563 -0.59848 21.4296 3.16211 -3.19346e-09 7.80836e-10 -2.56648e-09 -5.55638e-09 1.34738e-09 -4.37757e-09 -3.19346e-09 7.80839e-10 -2.56649e-09 7.73091 5.47488 0.417314 -3.19346e-09 7.80836e-10 -2.56648e-09 2.90554 0.965183 0.102902 -3.19346e-09 7.80836e-10 -2.56647e-09 10.2786 0.731801 0.0259123 -3.19347e-09 7.80837e-10 -2.56646e-09 2.22167 -0.733487 -0.20892 1.20786e-13 1.09727e-12 5.7081e-13 -19.6426 25.4997 -84.2043 12.3585 -5.70315 -22.3057 0.719339 -23.3556 3.47932 -3.84257e-09 -1.44737e-09 -4.60334e-09 -6.55438e-09 -2.53516e-09 -8.02334e-09 -3.84258e-09 -1.44736e-09 -4.60331e-09 -7.73091 5.47488 -0.417314 -3.84257e-09 -1.44737e-09 -4.60333e-09 -2.90554 0.965183 -0.102902 -3.84258e-09 -1.44737e-09 -4.60331e-09 -10.2786 0.731801 -0.0259123 -3.84257e-09 -1.44737e-09 -4.60332e-09 -2.22167 -0.733487 0.20892 -2.03217e-16 0.0 -3.88251e-19 13.5446 -42.0218 19.7898 -174.457 72.377 172.495 -8.55469 -56.4029 -11.0193 2.03217e-16 0.0 3.88251e-19 1.59178 -75.266 14.8504 6.8191 78.8627 -3.15652 2.67798 -32.5298 6.68134
-39.2136 8.37142 81.7246 142.964 50.0893 -114.5 -11.6609 -7.1899 -5.36325 -0.413658 -7.79879 -1.69783 -5.09209 -5.36322 -6.18576 -3.22349 29.4798 -4.36217 -0.0 0.0 0.0 -0.0 0.0 0.0 3.61962e-13 9.65023e-13 3.99925e-13 16.4385 -0.051086 45.7269 -11.7981 -5.30801 21.2196 -0.602197 21.4917 3.17221 -3.1274e-09 8.68569e-10 -2.20615e-09 -5.43449e-09 1.4979e-09 -3.75408e-09 -3.12739e-09 8.68572e-10 -2.20616e-09 7.73091 5.47488 0.417314 -3.1274e-09 8.68567e-10 -2.20614e-09 2.90554 0.965183 0.102902 -3.12739e-09 8.68567e-10 -2.20614e-09 10.2786 0.731801 0.0259123 -3.12741e-09 8.68569e-10 -2.20613e-09 2.22167 -0.733487 -0.20892 3.61788e-13 9.65001e-13 3.99596e-13 -19.6374 25.2857 -84.3218 12.3673 -5.70951 -22.323 0.737597 -23.6301 3.52524 -3.57077e-09 1.89717e-11 -4.03165e-09 -6.10079e-09 1.08922e-11 -7.02652e-09 -3.57078e-09 1.8973e-11 -4.03163e-09 -7.73091 5.47488 -0.417314 -3.57077e-09 1.89714e-11 -4.03164e-09 -2.90554 0.965183 -0.102902 -3.57078e-09 1.89724e-11 -4.03163e-09 -10.2786 0.731801 -0.0259123 -3.57077e-09 1.89729e-11 -4.03164e-09 -2.22167 -0.733487 0.20892 -2.03217e-16 0.0 -3.88251e-19 14.2042 -43.4077 19.4681 -174.403 72.1465 172.164 -8.60664 -56.2907 -10.6921 2.03217e-16 0.0 3.88251e-19 0.849799 -75.4961 14.7911 6.61489 78.6213 -3.02393 2.91112 -32.5228 6.98399
-39.3128 8.31624 81.552 142.731 50.4165 -114.535 -11.5707 -7.2267 -5.44348 -0.359174 -7.89286 -1.67418 -5.17166 -5.48546 -6.13123 -3.27767 29.4936 -4.23406 -0.0 0.0 0.0 -0.0 0.0 0.0 6.27468e-13 6.57083e-13 1.30617e-13 16.179 -0.368985 45.8554 -11.8368 -5.3348 21.2942 -0.606192 21.558 3.18301 -3.03489e-09 9.58257e-10 -1.56047e-09 -5.26156e-09 1.65107e-09 -2.63717e-09 -3.03488e-09 9.58261e-10 -1.56048e-09 7.73091 5.47488 0.417314 -3.03489e-09 9.58254e-10 -1.56047e-09 2.90554 0.965183 0.102902 -3.03489e-09 9.58254e-10 -1.56047e-09 10.2786 0.731801 0.0259123 -3.0349e-09 9.58255e-10 -1.56046e-09 2.22167 -0.733487 -0.20892 6.27355e-13 6.57083e-13 1.30331e-13 -19.6598 25.0827 -84.3952 12.3707 -5.71199 -22.3297 0.757228 -23.9199 3.57397 -2.75217e-09 1.8743e-09 -3.12249e-09 -4.71074e-09 3.23443e-09 -5.43639e-09 -2.75218e-09 1.8743e-09 -3.12248e-09 -7.73091 5.47488 -0.417314 -2.75218e-09 1.8743e-09 -3.12249e-09 -2.90554 0.965183 -0.102902 -2.75218e-09 1.8743e-09 -3.12248e-09 -10.2786 0.731801 -0.0259123 -2.75217e-09 1.8743e-09 -3.1225e-09 -2.22167 -0.733487 0.20892 -2.03217e-16 0.0 -3.88251e-19 14.9916 -45.0672 19.2274 -174.364 71.8516 171.835 -8.64451 -56.1657 -10.1306 2.03217e-16 0.0 3.88251e-19 0.0423952 -75.656 14.6902 6.41102 78.3912 -2.91838 3.15899 -32.5564 7.25978
